<svg width="22" height="28" viewBox="0 0 22 28" fill="none" xmlns="http://www.w3.org/2000/svg">
<path d="M11 0C8.08363 0.00330842 5.28766 1.1633 3.22548 3.22548C1.1633 5.28766 0.00330842 8.08363 0 11C0 14.925 1.81375 19.085 5.25 23.0312C6.79403 24.8145 8.53182 26.4202 10.4312 27.8188C10.5994 27.9365 10.7997 27.9997 11.005 27.9997C11.2103 27.9997 11.4106 27.9365 11.5788 27.8188C13.4747 26.4196 15.2091 24.8139 16.75 23.0312C20.1813 19.085 22 14.925 22 11C21.9967 8.08363 20.8367 5.28766 18.7745 3.22548C16.7123 1.1633 13.9164 0.00330842 11 0Z" fill="#D64751"/>
<path d="M16.1 14.8167L12.0008 7.69784C11.8984 7.52343 11.7521 7.37882 11.5766 7.27834C11.401 7.17786 11.2023 7.125 11 7.125C10.7977 7.125 10.599 7.17786 10.4234 7.27834C10.2479 7.37882 10.1017 7.52343 9.99923 7.69784L5.90001 14.8167C5.80145 14.9854 5.74951 15.1773 5.74951 15.3727C5.74951 15.5681 5.80145 15.7599 5.90001 15.9286C6.00114 16.1041 6.14713 16.2495 6.323 16.3499C6.49887 16.4503 6.69829 16.5021 6.9008 16.5H15.0992C15.3016 16.502 15.5008 16.4501 15.6765 16.3497C15.8522 16.2493 15.998 16.1039 16.0991 15.9286C16.1978 15.76 16.2499 15.5682 16.25 15.3728C16.2502 15.1774 16.1984 14.9855 16.1 14.8167ZM10.625 10.875C10.625 10.7756 10.6645 10.6802 10.7348 10.6099C10.8052 10.5395 10.9006 10.5 11 10.5C11.0995 10.5 11.1949 10.5395 11.2652 10.6099C11.3355 10.6802 11.375 10.7756 11.375 10.875V12.75C11.375 12.8495 11.3355 12.9449 11.2652 13.0152C11.1949 13.0855 11.0995 13.125 11 13.125C10.9006 13.125 10.8052 13.0855 10.7348 13.0152C10.6645 12.9449 10.625 12.8495 10.625 12.75V10.875ZM11 15C10.8888 15 10.78 14.967 10.6875 14.9052C10.595 14.8434 10.5229 14.7556 10.4803 14.6528C10.4378 14.55 10.4266 14.4369 10.4483 14.3278C10.47 14.2187 10.5236 14.1185 10.6023 14.0398C10.6809 13.9611 10.7812 13.9075 10.8903 13.8858C10.9994 13.8641 11.1125 13.8753 11.2153 13.9178C11.3181 13.9604 11.4059 14.0325 11.4677 14.125C11.5295 14.2175 11.5625 14.3263 11.5625 14.4375C11.5625 14.5867 11.5033 14.7298 11.3978 14.8353C11.2923 14.9408 11.1492 15 11 15Z" fill="#F5F5F5"/>
</svg>
