<svg width="22" height="28" viewBox="0 0 22 28" fill="none" xmlns="http://www.w3.org/2000/svg">
<path d="M11 0C8.08363 0.00330842 5.28766 1.1633 3.22548 3.22548C1.1633 5.28766 0.00330842 8.08363 0 11C0 14.925 1.81375 19.085 5.25 23.0312C6.79403 24.8145 8.53182 26.4202 10.4312 27.8188C10.5994 27.9365 10.7997 27.9997 11.005 27.9997C11.2103 27.9997 11.4106 27.9365 11.5788 27.8188C13.4747 26.4196 15.2091 24.8139 16.75 23.0312C20.1813 19.085 22 14.925 22 11C21.9967 8.08363 20.8367 5.28766 18.7745 3.22548C16.7123 1.1633 13.9164 0.00330842 11 0Z" fill="#002283"/>
<path d="M15.1248 9.00014V13.2625C15.1248 15.4281 13.3975 17.2258 11.2342 17.2497C10.7092 17.2567 10.188 17.1584 9.70171 16.9604C9.21539 16.7624 8.77374 16.4688 8.40295 16.097C7.38061 15.0156 6.22561 12.3751 6.22561 12.3751C6.1748 12.2872 6.14238 12.1899 6.13031 12.089C6.11825 11.9882 6.12678 11.886 6.1554 11.7885C6.18403 11.6911 6.23214 11.6005 6.29682 11.5222C6.3615 11.4439 6.44141 11.3796 6.5317 11.3331C6.89076 11.1456 7.33326 11.2937 7.53482 11.6434L8.5192 13.3515C8.54658 13.4007 8.58788 13.4407 8.63793 13.4665C8.68797 13.4923 8.74451 13.5027 8.80045 13.4964H8.80607C8.89615 13.4809 8.97774 13.4337 9.03617 13.3635C9.0946 13.2932 9.12604 13.2043 9.12482 13.1129V8.25014C9.12471 8.14853 9.14523 8.04796 9.18516 7.95454C9.22509 7.86111 9.28359 7.77676 9.3571 7.70663C9.43061 7.63649 9.51761 7.58202 9.61281 7.54652C9.70801 7.51103 9.80943 7.49525 9.91092 7.50014C10.3145 7.51889 10.6248 7.8667 10.6248 8.27029V11.2501C10.6247 11.3015 10.6352 11.3524 10.6555 11.3996C10.6759 11.4468 10.7058 11.4893 10.7433 11.5245C10.7808 11.5597 10.8251 11.5867 10.8735 11.6041C10.9219 11.6214 10.9734 11.6285 11.0247 11.6251C11.1211 11.6169 11.2108 11.5724 11.2758 11.5006C11.3407 11.4289 11.3761 11.3352 11.3748 11.2384V7.50014C11.3747 7.39853 11.3952 7.29796 11.4352 7.20454C11.4751 7.11111 11.5336 7.02676 11.6071 6.95663C11.6806 6.88649 11.7676 6.83202 11.8628 6.79652C11.958 6.76103 12.0594 6.74525 12.1609 6.75014C12.5645 6.76889 12.8748 7.1167 12.8748 7.52029V11.6251C12.8747 11.6765 12.8852 11.7274 12.9055 11.7746C12.9259 11.8218 12.9558 11.8643 12.9933 11.8995C13.0308 11.9347 13.0751 11.9617 13.1235 11.9791C13.1719 11.9964 13.2234 12.0035 13.2747 12.0001C13.3711 11.9919 13.4608 11.9474 13.5258 11.8756C13.5907 11.8039 13.6261 11.7102 13.6248 11.6134V9.02123C13.6248 8.61764 13.9351 8.27123 14.3387 8.25107C14.4401 8.24619 14.5415 8.26194 14.6366 8.29738C14.7318 8.33282 14.8187 8.3872 14.8922 8.45724C14.9657 8.52728 15.0242 8.61151 15.0642 8.70483C15.1042 8.79815 15.1248 8.89861 15.1248 9.00014Z" fill="#F5F5F5"/>
</svg>
