<svg width="22" height="28" viewBox="0 0 22 28" fill="none" xmlns="http://www.w3.org/2000/svg">
<path d="M11 0C8.08363 0.00330842 5.28766 1.1633 3.22548 3.22548C1.1633 5.28766 0.00330842 8.08363 0 11C0 14.925 1.81375 19.085 5.25 23.0312C6.79403 24.8145 8.53182 26.4202 10.4312 27.8188C10.5994 27.9365 10.7997 27.9997 11.005 27.9997C11.2103 27.9997 11.4106 27.9365 11.5788 27.8188C13.4747 26.4196 15.2091 24.8139 16.75 23.0312C20.1813 19.085 22 14.925 22 11C21.9967 8.08363 20.8367 5.28766 18.7745 3.22548C16.7123 1.1633 13.9164 0.00330842 11 0Z" fill="#02880B"/>
<path d="M14.6285 13.0814C14.1789 13.3547 13.6626 13.4984 13.1365 13.4967C12.6957 13.4933 12.2599 13.4031 11.854 13.2314C11.5411 13.6731 11.3736 14.2014 11.3749 14.7427V16.125C11.375 16.1764 11.3645 16.2273 11.3442 16.2745C11.3238 16.3217 11.2939 16.3642 11.2564 16.3994C11.2189 16.4345 11.1746 16.4616 11.1262 16.4789C11.0778 16.4963 11.0263 16.5034 10.9751 16.5C10.8787 16.4916 10.789 16.4471 10.7241 16.3754C10.6591 16.3037 10.6237 16.2101 10.6249 16.1133V15.5302L8.81458 13.7199C8.54547 13.8203 8.26086 13.8728 7.97365 13.875C7.57824 13.876 7.19024 13.7678 6.8524 13.5624C5.83099 12.9417 5.28115 11.5135 5.38755 9.74019C5.39291 9.64844 5.43177 9.56186 5.49675 9.49688C5.56173 9.4319 5.64831 9.39304 5.74005 9.38768C7.51333 9.28315 8.94161 9.83112 9.56036 10.8525C9.80346 11.2529 9.9096 11.7215 9.86271 12.1875C9.85979 12.2236 9.84648 12.2581 9.82438 12.2868C9.80228 12.3155 9.77234 12.3372 9.73818 12.3493C9.70402 12.3613 9.6671 12.3632 9.63188 12.3547C9.59666 12.3462 9.56466 12.3277 9.53974 12.3014L8.63974 11.3592C8.56884 11.2919 8.47443 11.2549 8.37665 11.2561C8.27886 11.2574 8.18544 11.2968 8.11628 11.3659C8.04713 11.4351 8.00773 11.5285 8.00648 11.6263C8.00523 11.7241 8.04223 11.8185 8.10958 11.8894L10.6352 14.4792C10.638 14.4427 10.6413 14.4061 10.6451 14.37C10.7271 13.6748 11.0339 13.0253 11.5188 12.5203L13.8902 10.0144C13.9606 9.9441 14.0001 9.84872 14.0002 9.74926C14.0002 9.64979 13.9607 9.55438 13.8904 9.48401C13.8201 9.41365 13.7248 9.37409 13.6253 9.37405C13.5258 9.374 13.4304 9.41348 13.3601 9.48378L11.0632 11.9128C11.0402 11.9372 11.0111 11.9549 10.9789 11.9642C10.9467 11.9735 10.9127 11.9741 10.8802 11.9657C10.8478 11.9574 10.8182 11.9406 10.7945 11.9169C10.7707 11.8933 10.7538 11.8637 10.7454 11.8313C10.5232 11.0119 10.6211 10.1963 11.0454 9.49597C11.8826 8.11409 13.8307 7.3744 16.2569 7.5169C16.3487 7.52226 16.4352 7.56112 16.5002 7.6261C16.5652 7.69108 16.6041 7.77766 16.6094 7.8694C16.7501 10.2961 16.0104 12.2442 14.6285 13.0814Z" fill="#F5F5F5"/>
</svg>
